
<svg viewBox="0 0 800 400" xmlns="http://www.w3.org/2000/svg">
  <defs>
    <filter id="cloudGlow">
      <feGaussianBlur stdDeviation="8" result="coloredBlur"/>
      <feMerge> 
        <feMergeNode in="coloredBlur"/>
        <feMergeNode in="SourceGraphic"/>
      </feMerge>
    </filter>
    <linearGradient id="cloudGradient" x1="0%" y1="0%" x2="100%" y2="100%">
      <stop offset="0%" style="stop-color:#87CEEB;stop-opacity:0.8" />
      <stop offset="50%" style="stop-color:#B0E0E6;stop-opacity:0.6" />
      <stop offset="100%" style="stop-color:#E0F6FF;stop-opacity:0.4" />
    </linearGradient>
  </defs>
  <path d="M100 200 C100 150 150 100 200 100 C250 50 350 50 400 100 C450 80 500 100 550 120 C600 100 650 120 680 150 C720 140 750 160 750 200 C750 240 720 260 680 250 C650 280 600 280 550 260 C500 280 450 280 400 260 C350 280 300 280 250 260 C200 280 150 280 100 250 Z" fill="url(#cloudGradient)" filter="url(#cloudGlow)"/>
</svg>
